<svg id="svg" version="1.1" xmlns="http://www.w3.org/2000/svg" xmlns:xlink="http://www.w3.org/1999/xlink" width="400" height="149.92503748125935" viewBox="0, 0, 400,149.92503748125935"><g id="svgg"><path id="path0" d="M35.667 29.343 C 35.667 29.621,35.547 29.667,34.818 29.667 C 34.109 29.667,33.954 29.722,33.882 30.000 C 33.816 30.250,33.654 30.333,33.231 30.333 C 32.840 30.333,32.667 30.410,32.667 30.583 C 32.667 30.721,32.554 30.833,32.417 30.833 C 32.237 30.833,32.167 31.017,32.167 31.484 C 32.167 32.053,32.125 32.124,31.833 32.048 C 31.540 31.972,31.500 32.043,31.500 32.647 C 31.500 33.222,31.446 33.333,31.167 33.333 C 30.865 33.333,30.833 33.444,30.833 34.500 C 30.833 35.426,30.782 35.667,30.583 35.667 C 30.391 35.667,30.333 35.880,30.333 36.583 C 30.333 37.389,30.293 37.500,30.000 37.500 C 29.698 37.500,29.667 37.611,29.667 38.667 C 29.667 39.593,29.615 39.833,29.417 39.833 C 29.213 39.833,29.167 40.111,29.167 41.333 C 29.167 42.722,29.142 42.833,28.833 42.833 C 28.530 42.833,28.500 42.944,28.500 44.083 C 28.500 45.222,28.470 45.333,28.167 45.333 C 27.854 45.333,27.833 45.444,27.833 47.083 C 27.833 48.528,27.790 48.833,27.583 48.833 C 27.376 48.833,27.333 49.148,27.333 50.667 C 27.333 52.389,27.313 52.500,27.000 52.500 C 26.688 52.500,26.667 52.611,26.667 54.250 C 26.667 55.694,26.623 56.000,26.417 56.000 C 26.205 56.000,26.167 56.417,26.167 58.750 C 26.167 61.389,26.153 61.500,25.833 61.500 C 25.512 61.500,25.500 61.611,25.500 64.500 C 25.500 67.389,25.488 67.500,25.167 67.500 C 24.842 67.500,24.833 67.611,24.833 71.922 C 24.833 75.699,24.797 76.358,24.583 76.440 C 24.207 76.584,24.207 84.167,24.583 84.167 C 24.798 84.167,24.833 84.676,24.833 87.750 C 24.833 91.222,24.844 91.333,25.167 91.333 C 25.483 91.333,25.500 91.444,25.500 93.500 C 25.500 95.556,25.517 95.667,25.833 95.667 C 26.135 95.667,26.167 95.778,26.167 96.833 C 26.167 97.759,26.218 98.000,26.417 98.000 C 26.591 98.000,26.667 98.176,26.667 98.583 C 26.667 99.056,26.730 99.167,27.000 99.167 C 27.222 99.167,27.333 99.278,27.333 99.500 C 27.333 99.685,27.444 99.833,27.583 99.833 C 27.721 99.833,27.833 99.946,27.833 100.083 C 27.833 100.222,27.981 100.333,28.167 100.333 C 28.389 100.333,28.500 100.444,28.500 100.667 C 28.500 100.960,28.611 101.000,29.417 101.000 C 30.222 101.000,30.333 101.040,30.333 101.333 C 30.333 101.845,33.151 101.845,33.285 101.333 C 33.357 101.057,33.512 101.000,34.186 101.000 C 34.889 101.000,35.000 100.954,35.000 100.667 C 35.000 100.444,35.111 100.333,35.333 100.333 C 35.519 100.333,35.667 100.222,35.667 100.083 C 35.667 99.944,35.815 99.833,36.000 99.833 C 36.222 99.833,36.333 99.722,36.333 99.500 C 36.333 99.315,36.444 99.167,36.583 99.167 C 36.803 99.167,36.833 97.954,36.833 89.250 C 36.833 79.444,36.837 79.333,37.167 79.333 C 37.490 79.333,37.500 79.222,37.500 75.750 C 37.500 72.676,37.536 72.167,37.750 72.167 C 37.944 72.167,38.000 72.387,38.000 73.153 C 38.000 74.290,38.108 74.667,38.434 74.667 C 38.611 74.667,38.667 74.947,38.667 75.833 C 38.667 76.889,38.698 77.000,39.000 77.000 C 39.302 77.000,39.333 77.111,39.333 78.167 C 39.333 79.093,39.385 79.333,39.583 79.333 C 39.801 79.333,39.962 80.354,39.853 81.042 C 39.842 81.110,39.983 81.167,40.167 81.167 C 40.460 81.167,40.500 81.278,40.500 82.083 C 40.500 82.907,40.536 83.000,40.855 83.000 C 41.181 83.000,41.203 83.068,41.127 83.855 C 41.056 84.588,41.089 84.721,41.356 84.791 C 41.611 84.858,41.667 85.034,41.667 85.769 C 41.667 86.556,41.708 86.667,42.000 86.667 C 42.270 86.667,42.333 86.778,42.333 87.250 C 42.333 87.657,42.409 87.833,42.583 87.833 C 42.721 87.833,42.833 87.946,42.833 88.083 C 42.833 88.222,42.981 88.333,43.167 88.333 C 43.389 88.333,43.500 88.444,43.500 88.667 C 43.500 88.937,43.611 89.000,44.083 89.000 C 44.556 89.000,44.667 89.063,44.667 89.333 C 44.667 89.651,44.778 89.667,47.083 89.667 C 49.389 89.667,49.500 89.651,49.500 89.333 C 49.500 89.063,49.611 89.000,50.083 89.000 C 50.556 89.000,50.667 88.937,50.667 88.667 C 50.667 88.444,50.778 88.333,51.000 88.333 C 51.185 88.333,51.333 88.222,51.333 88.083 C 51.333 87.946,51.446 87.833,51.583 87.833 C 51.758 87.833,51.833 87.657,51.833 87.250 C 51.833 86.778,51.897 86.667,52.167 86.667 C 52.444 86.667,52.500 86.556,52.500 86.000 C 52.500 85.519,52.569 85.333,52.750 85.333 C 52.925 85.333,53.000 85.157,53.000 84.750 C 53.000 84.278,53.063 84.167,53.333 84.167 C 53.603 84.167,53.667 84.056,53.667 83.583 C 53.667 83.111,53.730 83.000,54.000 83.000 C 54.293 83.000,54.333 82.889,54.333 82.083 C 54.333 81.380,54.391 81.167,54.583 81.167 C 54.758 81.167,54.833 80.991,54.833 80.583 C 54.833 80.111,54.897 80.000,55.167 80.000 C 55.460 80.000,55.500 79.889,55.500 79.083 C 55.500 78.380,55.558 78.167,55.750 78.167 C 55.925 78.167,56.000 77.991,56.000 77.583 C 56.000 77.111,56.063 77.000,56.333 77.000 C 56.626 77.000,56.667 76.889,56.667 76.083 C 56.667 75.278,56.707 75.167,57.000 75.167 C 57.270 75.167,57.333 75.056,57.333 74.583 C 57.333 74.176,57.409 74.000,57.583 74.000 C 57.775 74.000,57.833 73.787,57.833 73.083 C 57.833 72.278,57.874 72.167,58.167 72.167 C 58.437 72.167,58.500 72.056,58.500 71.583 C 58.500 71.176,58.575 71.000,58.750 71.000 C 58.942 71.000,59.000 70.787,59.000 70.083 C 59.000 69.278,59.040 69.167,59.333 69.167 C 59.653 69.167,59.667 69.278,59.667 71.917 C 59.667 74.425,59.641 74.667,59.375 74.667 C 59.102 74.667,59.086 75.070,59.124 81.125 C 59.147 84.677,59.166 87.640,59.166 87.708 C 59.166 87.777,59.279 87.833,59.417 87.833 C 59.627 87.833,59.667 88.213,59.667 90.250 C 59.667 92.556,59.682 92.667,60.000 92.667 C 60.312 92.667,60.333 92.778,60.333 94.417 C 60.333 95.861,60.377 96.167,60.583 96.167 C 60.782 96.167,60.833 96.409,60.833 97.349 C 60.833 98.391,60.873 98.542,61.167 98.618 C 61.350 98.666,61.500 98.809,61.500 98.936 C 61.500 99.063,61.650 99.167,61.833 99.167 C 62.017 99.167,62.158 99.223,62.147 99.292 C 62.093 99.635,62.191 99.833,62.417 99.833 C 62.554 99.833,62.667 99.946,62.667 100.083 C 62.667 100.222,62.815 100.333,63.000 100.333 C 63.222 100.333,63.333 100.444,63.333 100.667 C 63.333 100.955,63.444 101.000,64.155 101.000 C 64.831 101.000,64.996 101.059,65.083 101.333 C 65.178 101.632,65.336 101.667,66.595 101.667 C 67.889 101.667,68.000 101.640,68.000 101.333 C 68.000 101.040,68.111 101.000,68.917 101.000 C 69.722 101.000,69.833 100.960,69.833 100.667 C 69.833 100.444,69.944 100.333,70.167 100.333 C 70.352 100.333,70.500 100.222,70.500 100.083 C 70.500 99.946,70.612 99.833,70.750 99.833 C 70.925 99.833,71.000 99.657,71.000 99.250 C 71.000 98.778,71.063 98.667,71.333 98.667 C 71.654 98.667,71.667 98.556,71.667 95.667 C 71.667 92.778,71.654 92.667,71.333 92.667 C 71.011 92.667,71.000 92.556,71.000 89.333 C 71.000 86.111,71.011 86.000,71.333 86.000 C 71.656 86.000,71.667 85.889,71.667 82.417 C 71.667 78.944,71.677 78.833,72.000 78.833 C 72.322 78.833,72.333 78.722,72.333 75.500 C 72.333 72.648,72.369 72.167,72.583 72.167 C 72.797 72.167,72.833 71.694,72.833 68.917 C 72.833 65.778,72.845 65.667,73.167 65.667 C 73.487 65.667,73.500 65.556,73.500 62.917 C 73.500 60.583,73.538 60.167,73.750 60.167 C 73.956 60.167,74.000 59.861,74.000 58.417 C 74.000 56.778,74.021 56.667,74.333 56.667 C 74.649 56.667,74.667 56.556,74.667 54.603 C 74.667 52.679,74.689 52.533,75.000 52.452 C 75.301 52.373,75.333 52.224,75.333 50.932 C 75.333 49.770,75.381 49.500,75.583 49.500 C 75.790 49.500,75.833 49.185,75.833 47.667 C 75.833 45.944,75.854 45.833,76.167 45.833 C 76.475 45.833,76.500 45.722,76.500 44.333 C 76.500 43.111,76.546 42.833,76.750 42.833 C 76.956 42.833,77.000 42.528,77.000 41.083 C 77.000 39.444,77.021 39.333,77.333 39.333 C 77.646 39.333,77.667 39.222,77.667 37.500 C 77.667 35.778,77.687 35.667,78.000 35.667 C 78.312 35.667,78.333 35.556,78.333 33.936 C 78.333 32.346,78.306 32.198,78.000 32.118 C 77.745 32.052,77.667 31.891,77.667 31.432 C 77.667 30.944,77.605 30.833,77.333 30.833 C 77.148 30.833,77.000 30.722,77.000 30.583 C 77.000 30.446,76.887 30.333,76.750 30.333 C 76.611 30.333,76.500 30.185,76.500 30.000 C 76.500 29.730,76.389 29.667,75.917 29.667 C 75.529 29.667,75.333 29.589,75.333 29.434 C 75.333 29.057,74.936 29.000,72.320 29.000 C 69.944 29.000,69.833 29.015,69.833 29.333 C 69.833 29.603,69.722 29.667,69.250 29.667 C 68.778 29.667,68.667 29.730,68.667 30.000 C 68.667 30.188,68.556 30.333,68.411 30.333 C 68.271 30.333,68.113 30.446,68.060 30.583 C 68.008 30.721,67.860 30.833,67.732 30.833 C 67.604 30.833,67.500 30.983,67.500 31.167 C 67.500 31.389,67.389 31.500,67.167 31.500 C 66.983 31.500,66.833 31.604,66.833 31.732 C 66.833 31.860,66.721 32.008,66.583 32.060 C 66.446 32.113,66.333 32.271,66.333 32.411 C 66.333 32.556,66.188 32.667,66.000 32.667 C 65.730 32.667,65.667 32.778,65.667 33.250 C 65.667 33.706,65.600 33.833,65.359 33.833 C 65.126 33.833,65.047 33.965,65.035 34.370 C 65.027 34.665,64.903 34.992,64.760 35.097 C 64.591 35.220,64.500 35.550,64.500 36.041 C 64.500 36.654,64.438 36.811,64.167 36.882 C 63.924 36.945,63.833 37.109,63.833 37.484 C 63.833 37.832,63.752 38.000,63.583 38.000 C 63.391 38.000,63.333 38.213,63.333 38.917 C 63.333 39.722,63.293 39.833,63.000 39.833 C 62.730 39.833,62.667 39.944,62.667 40.417 C 62.667 40.824,62.591 41.000,62.417 41.000 C 62.279 41.000,62.157 41.075,62.146 41.167 C 62.134 41.258,62.106 41.408,62.083 41.500 C 62.060 41.592,62.032 41.929,62.021 42.250 C 62.007 42.648,61.921 42.833,61.750 42.833 C 61.575 42.833,61.500 43.009,61.500 43.417 C 61.500 43.947,61.375 44.086,60.958 44.020 C 60.890 44.009,60.833 44.412,60.833 44.917 C 60.833 45.620,60.775 45.833,60.583 45.833 C 60.410 45.833,60.333 46.007,60.333 46.397 C 60.333 46.821,60.250 46.983,60.000 47.048 C 59.722 47.121,59.667 47.276,59.667 47.984 C 59.667 48.706,59.619 48.833,59.352 48.833 C 59.088 48.833,59.049 48.928,59.115 49.417 C 59.183 49.922,59.147 50.000,58.847 50.000 C 58.538 50.000,58.500 50.099,58.500 50.897 C 58.500 51.654,58.448 51.808,58.167 51.882 C 57.924 51.945,57.833 52.109,57.833 52.484 C 57.833 52.832,57.752 53.000,57.583 53.000 C 57.391 53.000,57.333 53.213,57.333 53.917 C 57.333 54.722,57.293 54.833,57.000 54.833 C 56.730 54.833,56.667 54.944,56.667 55.417 C 56.667 55.824,56.591 56.000,56.417 56.000 C 56.158 56.000,56.108 56.153,56.160 56.792 C 56.183 57.070,56.101 57.167,55.845 57.167 C 55.539 57.167,55.500 57.267,55.500 58.064 C 55.500 58.821,55.448 58.975,55.167 59.048 C 54.927 59.111,54.833 59.276,54.833 59.633 C 54.833 59.922,54.728 60.171,54.583 60.227 C 54.407 60.295,54.333 60.570,54.333 61.161 C 54.333 61.889,54.289 62.000,54.000 62.000 C 53.722 62.000,53.667 62.111,53.667 62.674 C 53.667 63.220,53.612 63.339,53.379 63.299 C 53.072 63.247,53.053 63.301,53.021 64.333 C 53.006 64.806,52.927 65.000,52.750 65.000 C 52.575 65.000,52.500 65.176,52.500 65.583 C 52.500 66.056,52.437 66.167,52.167 66.167 C 51.874 66.167,51.833 66.278,51.833 67.083 C 51.833 67.770,51.773 68.000,51.593 68.000 C 51.436 68.000,51.336 68.216,51.302 68.625 C 51.262 69.101,51.180 69.244,50.958 69.227 C 50.714 69.207,50.667 69.349,50.667 70.102 C 50.667 70.766,50.605 71.000,50.431 71.000 C 50.301 71.000,50.157 71.094,50.110 71.208 C 50.064 71.323,50.020 70.910,50.013 70.292 C 50.003 69.409,49.946 69.167,49.750 69.167 C 49.546 69.167,49.500 68.889,49.500 67.667 C 49.500 66.278,49.475 66.167,49.167 66.167 C 48.865 66.167,48.833 66.056,48.833 65.000 C 48.833 64.074,48.782 63.833,48.583 63.833 C 48.380 63.833,48.333 63.556,48.333 62.333 C 48.333 60.944,48.309 60.833,48.000 60.833 C 47.691 60.833,47.667 60.722,47.667 59.333 C 47.667 57.944,47.642 57.833,47.333 57.833 C 47.025 57.833,47.000 57.722,47.000 56.333 C 47.000 55.126,46.952 54.833,46.756 54.833 C 46.559 54.833,46.502 54.483,46.464 53.042 C 46.425 51.581,46.370 51.250,46.167 51.250 C 45.963 51.250,45.908 50.919,45.869 49.458 C 45.831 48.017,45.774 47.667,45.578 47.667 C 45.378 47.667,45.333 47.335,45.333 45.852 C 45.333 44.226,45.303 44.039,45.042 44.060 C 44.780 44.081,44.745 43.864,44.703 41.958 C 44.660 39.971,44.635 39.833,44.328 39.833 C 44.014 39.833,44.000 39.707,44.000 36.833 C 44.000 34.278,43.963 33.833,43.750 33.833 C 43.552 33.833,43.500 33.593,43.500 32.667 C 43.500 31.611,43.468 31.500,43.167 31.500 C 42.944 31.500,42.833 31.389,42.833 31.167 C 42.833 30.981,42.722 30.833,42.583 30.833 C 42.446 30.833,42.333 30.721,42.333 30.583 C 42.333 30.444,42.185 30.333,42.000 30.333 C 41.778 30.333,41.667 30.222,41.667 30.000 C 41.667 29.730,41.556 29.667,41.083 29.667 C 40.617 29.667,40.500 29.602,40.500 29.343 C 40.500 29.038,40.364 29.020,38.083 29.020 C 35.802 29.020,35.667 29.038,35.667 29.343 M169.465 29.327 C 169.300 29.591,169.077 29.667,168.460 29.667 C 167.778 29.667,167.667 29.713,167.667 30.000 C 167.667 30.270,167.556 30.333,167.083 30.333 C 166.676 30.333,166.500 30.409,166.500 30.583 C 166.500 30.722,166.352 30.833,166.167 30.833 C 165.944 30.833,165.833 30.944,165.833 31.167 C 165.833 31.389,165.722 31.500,165.500 31.500 C 165.207 31.500,165.167 31.611,165.167 32.417 C 165.167 33.120,165.109 33.333,164.917 33.333 C 164.728 33.333,164.667 33.537,164.667 34.167 C 164.667 34.889,164.622 35.000,164.333 35.000 C 164.030 35.000,164.000 35.111,164.000 36.250 C 164.000 37.250,163.950 37.500,163.750 37.500 C 163.558 37.500,163.500 37.713,163.500 38.417 C 163.500 39.222,163.460 39.333,163.167 39.333 C 162.866 39.333,162.833 39.444,162.833 40.481 C 162.833 41.488,162.793 41.638,162.500 41.715 C 162.199 41.794,162.167 41.942,162.167 43.234 C 162.167 44.396,162.119 44.667,161.917 44.667 C 161.713 44.667,161.667 44.944,161.667 46.167 C 161.667 47.556,161.642 47.667,161.333 47.667 C 161.020 47.667,161.000 47.778,161.000 49.518 C 161.000 51.095,160.963 51.355,160.750 51.273 C 160.536 51.191,160.500 51.486,160.500 53.339 C 160.500 55.389,160.483 55.500,160.167 55.500 C 159.854 55.500,159.833 55.611,159.833 57.250 C 159.833 58.855,159.807 59.000,159.519 59.000 C 159.345 59.000,159.207 59.094,159.211 59.208 C 159.292 61.388,159.137 63.833,158.917 63.833 C 158.702 63.833,158.667 64.343,158.667 67.417 C 158.667 70.889,158.656 71.000,158.333 71.000 C 158.004 71.000,158.000 71.111,158.000 79.667 C 158.000 88.222,158.004 88.333,158.333 88.333 C 158.653 88.333,158.667 88.444,158.667 91.083 C 158.667 93.417,158.705 93.833,158.917 93.833 C 159.141 93.833,159.309 95.624,159.179 96.625 C 159.164 96.740,159.305 96.833,159.493 96.833 C 159.794 96.833,159.833 96.938,159.833 97.750 C 159.833 98.556,159.874 98.667,160.167 98.667 C 160.437 98.667,160.500 98.778,160.500 99.250 C 160.500 99.657,160.575 99.833,160.750 99.833 C 160.887 99.833,161.000 99.946,161.000 100.083 C 161.000 100.222,161.148 100.333,161.333 100.333 C 161.556 100.333,161.667 100.444,161.667 100.667 C 161.667 100.937,161.778 101.000,162.250 101.000 C 162.722 101.000,162.833 101.063,162.833 101.333 C 162.833 101.653,162.944 101.667,165.500 101.667 C 168.056 101.667,168.167 101.653,168.167 101.333 C 168.167 101.063,168.278 101.000,168.750 101.000 C 169.222 101.000,169.333 100.937,169.333 100.667 C 169.333 100.444,169.444 100.333,169.667 100.333 C 169.937 100.333,170.000 100.222,170.000 99.750 C 170.000 99.278,170.063 99.167,170.333 99.167 C 170.663 99.167,170.667 99.056,170.667 90.167 C 170.667 82.278,170.698 81.167,170.917 81.167 C 171.056 81.167,171.167 81.315,171.167 81.500 C 171.167 81.722,171.278 81.833,171.500 81.833 C 171.685 81.833,171.833 81.944,171.833 82.083 C 171.833 82.258,172.009 82.333,172.417 82.333 C 172.889 82.333,173.000 82.397,173.000 82.667 C 173.000 82.889,173.111 83.000,173.333 83.000 C 173.549 83.000,173.667 83.111,173.667 83.314 C 173.667 83.493,173.817 83.667,174.017 83.719 C 174.210 83.770,174.317 83.891,174.257 83.989 C 174.186 84.104,174.385 84.167,174.818 84.167 C 175.358 84.167,175.470 84.218,175.390 84.427 C 175.323 84.600,175.408 84.717,175.645 84.779 C 175.840 84.830,176.000 84.976,176.000 85.103 C 176.000 85.230,176.150 85.333,176.333 85.333 C 176.556 85.333,176.667 85.444,176.667 85.667 C 176.667 85.937,176.778 86.000,177.250 86.000 C 177.722 86.000,177.833 86.063,177.833 86.333 C 177.833 86.554,177.944 86.667,178.161 86.667 C 178.385 86.667,178.459 86.747,178.394 86.917 C 178.318 87.114,178.442 87.167,178.982 87.167 C 179.556 87.167,179.667 87.221,179.667 87.500 C 179.667 87.685,179.778 87.833,179.917 87.833 C 180.054 87.833,180.167 87.941,180.167 88.073 C 180.167 88.230,180.383 88.331,180.792 88.365 C 181.207 88.399,181.401 88.492,181.370 88.639 C 181.345 88.762,181.476 88.902,181.662 88.950 C 181.851 89.000,182.000 89.178,182.000 89.353 C 182.000 89.600,182.123 89.667,182.583 89.667 C 182.991 89.667,183.167 89.742,183.167 89.917 C 183.167 90.056,183.315 90.167,183.500 90.167 C 183.722 90.167,183.833 90.278,183.833 90.500 C 183.833 90.770,183.944 90.833,184.417 90.833 C 184.824 90.833,185.000 90.909,185.000 91.083 C 185.000 91.258,185.176 91.333,185.583 91.333 C 186.050 91.333,186.167 91.398,186.167 91.657 C 186.167 91.910,186.302 91.991,186.792 92.032 C 187.213 92.066,187.417 92.165,187.417 92.333 C 187.417 92.502,187.620 92.600,188.042 92.635 C 188.451 92.669,188.667 92.770,188.667 92.927 C 188.667 93.123,189.048 93.167,190.750 93.167 C 192.491 93.167,192.833 93.126,192.833 92.917 C 192.833 92.779,192.946 92.667,193.083 92.667 C 193.222 92.667,193.333 92.519,193.333 92.333 C 193.333 92.111,193.444 92.000,193.667 92.000 C 193.889 92.000,194.000 91.889,194.000 91.667 C 194.000 91.444,194.111 91.333,194.333 91.333 C 194.622 91.333,194.667 91.222,194.667 90.500 C 194.667 89.870,194.728 89.667,194.917 89.667 C 195.109 89.667,195.167 89.454,195.167 88.750 C 195.167 88.046,195.109 87.833,194.917 87.833 C 194.725 87.833,194.667 87.620,194.667 86.917 C 194.667 86.111,194.626 86.000,194.333 86.000 C 194.114 86.000,194.000 85.889,194.000 85.676 C 194.000 85.442,193.908 85.370,193.667 85.417 C 193.379 85.472,193.333 85.391,193.333 84.824 C 193.333 84.351,193.263 84.167,193.083 84.167 C 192.946 84.167,192.833 84.054,192.833 83.917 C 192.833 83.778,192.685 83.667,192.500 83.667 C 192.278 83.667,192.167 83.556,192.167 83.333 C 192.167 83.063,192.056 83.000,191.583 83.000 C 191.111 83.000,191.000 82.937,191.000 82.667 C 191.000 82.483,190.944 82.342,190.875 82.353 C 190.531 82.407,190.333 82.309,190.333 82.083 C 190.333 81.946,190.221 81.833,190.083 81.833 C 189.944 81.833,189.833 81.685,189.833 81.500 C 189.833 81.278,189.722 81.167,189.500 81.167 C 189.315 81.167,189.167 81.056,189.167 80.917 C 189.167 80.742,188.991 80.667,188.583 80.667 C 188.111 80.667,188.000 80.603,188.000 80.333 C 188.000 80.111,187.889 80.000,187.667 80.000 C 187.439 80.000,187.333 79.889,187.333 79.649 C 187.333 79.405,187.257 79.327,187.083 79.394 C 186.913 79.459,186.833 79.385,186.833 79.161 C 186.833 78.898,186.719 78.833,186.250 78.833 C 185.778 78.833,185.667 78.770,185.667 78.500 C 185.667 78.317,185.610 78.176,185.542 78.186 C 185.198 78.241,185.000 78.142,185.000 77.917 C 185.000 77.778,184.852 77.667,184.667 77.667 C 184.444 77.667,184.333 77.556,184.333 77.333 C 184.333 77.148,184.222 77.000,184.083 77.000 C 183.946 77.000,183.833 76.896,183.833 76.768 C 183.833 76.513,183.483 76.333,182.986 76.333 C 182.811 76.333,182.667 76.221,182.667 76.083 C 182.667 75.946,182.525 75.833,182.353 75.833 C 182.179 75.833,182.000 75.684,181.952 75.500 C 181.904 75.317,181.745 75.167,181.599 75.167 C 181.453 75.167,181.333 75.054,181.333 74.917 C 181.333 74.779,181.221 74.667,181.083 74.667 C 180.944 74.667,180.833 74.519,180.833 74.333 C 180.833 74.111,180.722 74.000,180.500 74.000 C 180.315 74.000,180.167 73.889,180.167 73.750 C 180.167 73.575,179.991 73.500,179.583 73.500 C 179.111 73.500,179.000 73.437,179.000 73.167 C 179.000 72.944,178.889 72.833,178.667 72.833 C 178.444 72.833,178.333 72.722,178.333 72.500 C 178.333 72.278,178.444 72.167,178.667 72.167 C 178.852 72.167,179.000 72.056,179.000 71.917 C 179.000 71.725,179.213 71.667,179.917 71.667 C 180.722 71.667,180.833 71.626,180.833 71.333 C 180.833 71.040,180.944 71.000,181.750 71.000 C 182.454 71.000,182.667 70.942,182.667 70.750 C 182.667 70.575,182.843 70.500,183.250 70.500 C 183.722 70.500,183.833 70.437,183.833 70.167 C 183.833 69.981,183.944 69.833,184.083 69.833 C 184.222 69.833,184.333 69.685,184.333 69.500 C 184.333 69.222,184.444 69.167,185.000 69.167 C 185.481 69.167,185.667 69.097,185.667 68.917 C 185.667 68.779,185.779 68.667,185.917 68.667 C 186.056 68.667,186.167 68.519,186.167 68.333 C 186.167 68.063,186.278 68.000,186.750 68.000 C 187.157 68.000,187.333 67.925,187.333 67.750 C 187.333 67.611,187.481 67.500,187.667 67.500 C 187.889 67.500,188.000 67.389,188.000 67.167 C 188.000 66.944,188.111 66.833,188.333 66.833 C 188.556 66.833,188.667 66.722,188.667 66.500 C 188.667 66.315,188.778 66.167,188.917 66.167 C 189.054 66.167,189.167 66.054,189.167 65.917 C 189.167 65.778,189.315 65.667,189.500 65.667 C 189.722 65.667,189.833 65.556,189.833 65.333 C 189.833 65.148,189.944 65.000,190.083 65.000 C 190.221 65.000,190.333 64.887,190.333 64.750 C 190.333 64.611,190.481 64.500,190.667 64.500 C 190.889 64.500,191.000 64.389,191.000 64.167 C 191.000 63.944,191.111 63.833,191.333 63.833 C 191.556 63.833,191.667 63.722,191.667 63.500 C 191.667 63.315,191.778 63.167,191.917 63.167 C 192.091 63.167,192.167 62.991,192.167 62.583 C 192.167 62.111,192.230 62.000,192.500 62.000 C 192.770 62.000,192.833 61.889,192.833 61.417 C 192.833 61.009,192.909 60.833,193.083 60.833 C 193.258 60.833,193.333 60.657,193.333 60.250 C 193.333 59.778,193.397 59.667,193.667 59.667 C 193.960 59.667,194.000 59.556,194.000 58.750 C 194.000 57.944,194.040 57.833,194.333 57.833 C 194.626 57.833,194.667 57.722,194.667 56.917 C 194.667 56.213,194.725 56.000,194.917 56.000 C 195.126 56.000,195.167 55.657,195.167 53.917 C 195.167 51.944,195.184 51.833,195.500 51.833 C 195.816 51.833,195.833 51.722,195.833 49.750 C 195.833 47.778,195.816 47.667,195.500 47.667 C 195.187 47.667,195.167 47.556,195.167 45.833 C 195.167 44.315,195.124 44.000,194.917 44.000 C 194.728 44.000,194.667 43.796,194.667 43.167 C 194.667 42.444,194.622 42.333,194.333 42.333 C 194.040 42.333,194.000 42.222,194.000 41.417 C 194.000 40.611,193.960 40.500,193.667 40.500 C 193.397 40.500,193.333 40.389,193.333 39.917 C 193.333 39.509,193.258 39.333,193.083 39.333 C 192.944 39.333,192.833 39.185,192.833 39.000 C 192.833 38.778,192.722 38.667,192.500 38.667 C 192.315 38.667,192.167 38.556,192.167 38.417 C 192.167 38.279,192.054 38.167,191.917 38.167 C 191.736 38.167,191.667 37.981,191.667 37.500 C 191.667 36.944,191.611 36.833,191.333 36.833 C 191.148 36.833,191.000 36.722,191.000 36.583 C 191.000 36.409,190.824 36.333,190.417 36.333 C 189.944 36.333,189.833 36.270,189.833 36.000 C 189.833 35.778,189.722 35.667,189.500 35.667 C 189.315 35.667,189.167 35.556,189.167 35.417 C 189.167 35.279,189.054 35.167,188.917 35.167 C 188.778 35.167,188.667 35.019,188.667 34.833 C 188.667 34.556,188.556 34.500,188.000 34.500 C 187.444 34.500,187.333 34.444,187.333 34.167 C 187.333 33.897,187.222 33.833,186.750 33.833 C 186.343 33.833,186.167 33.758,186.167 33.583 C 186.167 33.409,185.991 33.333,185.583 33.333 C 185.111 33.333,185.000 33.270,185.000 33.000 C 185.000 32.708,184.889 32.667,184.103 32.667 C 183.367 32.667,183.191 32.611,183.124 32.356 C 183.054 32.089,182.922 32.056,182.188 32.127 C 181.402 32.203,181.333 32.181,181.333 31.855 C 181.333 31.527,181.245 31.500,180.167 31.500 C 179.111 31.500,179.000 31.468,179.000 31.167 C 179.000 30.865,178.889 30.833,177.833 30.833 C 176.907 30.833,176.667 30.782,176.667 30.583 C 176.667 30.444,176.519 30.333,176.333 30.333 C 176.111 30.333,176.000 30.222,176.000 30.000 C 176.000 29.730,175.889 29.667,175.417 29.667 C 174.953 29.667,174.833 29.601,174.833 29.348 C 174.833 28.838,169.783 28.819,169.465 29.327 M232.527 29.143 C 232.405 29.222,232.312 29.354,232.321 29.435 C 232.330 29.517,231.962 29.606,231.502 29.634 C 230.802 29.676,230.667 29.737,230.667 30.009 C 230.667 30.276,230.550 30.333,230.000 30.333 C 229.519 30.333,229.333 30.403,229.333 30.583 C 229.333 30.721,229.221 30.833,229.083 30.833 C 228.944 30.833,228.833 30.981,228.833 31.167 C 228.833 31.389,228.722 31.500,228.500 31.500 C 228.317 31.500,228.167 31.604,228.167 31.732 C 228.167 31.860,228.054 32.008,227.917 32.060 C 227.740 32.128,227.667 32.403,227.667 32.995 C 227.667 33.722,227.622 33.833,227.333 33.833 C 227.041 33.833,227.000 33.944,227.000 34.731 C 227.000 35.488,226.948 35.641,226.667 35.715 C 226.373 35.792,226.333 35.942,226.333 36.984 C 226.333 37.924,226.282 38.167,226.083 38.167 C 225.885 38.167,225.833 38.407,225.833 39.333 C 225.833 40.389,225.802 40.500,225.500 40.500 C 225.191 40.500,225.167 40.611,225.167 42.000 C 225.167 43.222,225.120 43.500,224.917 43.500 C 224.713 43.500,224.667 43.778,224.667 45.000 C 224.667 46.389,224.642 46.500,224.333 46.500 C 224.025 46.500,224.000 46.611,224.000 48.000 C 224.000 49.389,223.975 49.500,223.667 49.500 C 223.351 49.500,223.333 49.611,223.333 51.583 C 223.333 53.324,223.292 53.667,223.083 53.667 C 222.874 53.667,222.833 54.009,222.833 55.750 C 222.833 57.722,222.816 57.833,222.500 57.833 C 222.182 57.833,222.167 57.944,222.167 60.250 C 222.167 62.287,222.127 62.667,221.917 62.667 C 221.704 62.667,221.667 63.111,221.667 65.667 C 221.667 68.556,221.654 68.667,221.333 68.667 C 221.003 68.667,221.000 68.778,221.000 79.417 C 221.000 90.056,221.003 90.167,221.333 90.167 C 221.651 90.167,221.667 90.278,221.667 92.583 C 221.667 94.620,221.706 95.000,221.917 95.000 C 222.115 95.000,222.167 95.241,222.167 96.167 C 222.167 97.222,222.198 97.333,222.500 97.333 C 222.793 97.333,222.833 97.444,222.833 98.250 C 222.833 98.954,222.891 99.167,223.083 99.167 C 223.222 99.167,223.333 99.315,223.333 99.500 C 223.333 99.722,223.444 99.833,223.667 99.833 C 223.852 99.833,224.000 99.944,224.000 100.083 C 224.000 100.222,224.148 100.333,224.333 100.333 C 224.556 100.333,224.667 100.444,224.667 100.667 C 224.667 100.937,224.778 101.000,225.250 101.000 C 225.722 101.000,225.833 101.063,225.833 101.333 C 225.833 101.649,225.944 101.667,227.917 101.667 C 229.889 101.667,230.000 101.649,230.000 101.333 C 230.000 101.063,230.111 101.000,230.583 101.000 C 231.056 101.000,231.167 100.937,231.167 100.667 C 231.167 100.397,231.278 100.333,231.750 100.333 C 232.306 100.333,232.333 100.306,232.333 99.750 C 232.333 99.278,232.397 99.167,232.667 99.167 C 232.996 99.167,233.000 99.056,233.000 89.250 C 233.000 79.444,233.004 79.333,233.333 79.333 C 233.556 79.333,233.667 79.444,233.667 79.667 C 233.667 79.852,233.778 80.000,233.917 80.000 C 234.056 80.000,234.167 80.148,234.167 80.333 C 234.167 80.556,234.278 80.667,234.500 80.667 C 234.685 80.667,234.833 80.778,234.833 80.917 C 234.833 81.054,234.946 81.167,235.083 81.167 C 235.222 81.167,235.333 81.315,235.333 81.500 C 235.333 81.722,235.444 81.833,235.667 81.833 C 235.852 81.833,236.000 81.944,236.000 82.083 C 236.000 82.221,236.107 82.333,236.239 82.333 C 236.370 82.333,236.525 82.483,236.583 82.667 C 236.642 82.850,236.797 83.000,236.928 83.000 C 237.059 83.000,237.167 83.150,237.167 83.333 C 237.167 83.556,237.278 83.667,237.500 83.667 C 237.685 83.667,237.833 83.778,237.833 83.917 C 237.833 84.091,238.009 84.167,238.417 84.167 C 238.889 84.167,239.000 84.230,239.000 84.500 C 239.000 84.683,239.104 84.833,239.232 84.833 C 239.360 84.833,239.508 84.946,239.560 85.083 C 239.613 85.221,239.771 85.333,239.911 85.333 C 240.056 85.333,240.167 85.478,240.167 85.667 C 240.167 85.889,240.278 86.000,240.500 86.000 C 240.715 86.000,240.833 86.111,240.833 86.314 C 240.833 86.493,240.984 86.667,241.183 86.719 C 241.376 86.770,241.484 86.891,241.424 86.989 C 241.359 87.093,241.456 87.167,241.657 87.167 C 241.889 87.167,242.000 87.275,242.000 87.500 C 242.000 87.720,242.111 87.833,242.328 87.833 C 242.551 87.833,242.626 87.913,242.560 88.083 C 242.494 88.257,242.572 88.333,242.816 88.333 C 243.056 88.333,243.167 88.439,243.167 88.667 C 243.167 88.934,243.278 89.000,243.731 89.000 C 244.154 89.000,244.316 89.083,244.382 89.333 C 244.430 89.517,244.588 89.667,244.734 89.667 C 244.880 89.667,245.000 89.770,245.000 89.897 C 245.000 90.024,245.152 90.168,245.338 90.216 C 245.524 90.265,245.655 90.405,245.630 90.527 C 245.599 90.675,245.793 90.767,246.208 90.802 C 246.617 90.836,246.833 90.936,246.833 91.093 C 246.833 91.225,246.946 91.333,247.083 91.333 C 247.222 91.333,247.333 91.481,247.333 91.667 C 247.333 91.889,247.444 92.000,247.667 92.000 C 247.889 92.000,248.000 92.111,248.000 92.333 C 248.000 92.603,248.111 92.667,248.583 92.667 C 248.991 92.667,249.167 92.742,249.167 92.917 C 249.167 93.128,249.574 93.167,251.833 93.167 C 254.093 93.167,254.500 93.128,254.500 92.917 C 254.500 92.778,254.648 92.667,254.833 92.667 C 255.056 92.667,255.167 92.556,255.167 92.333 C 255.167 92.063,255.278 92.000,255.750 92.000 C 256.306 92.000,256.333 91.972,256.333 91.417 C 256.333 90.944,256.397 90.833,256.667 90.833 C 256.985 90.833,257.000 90.722,257.000 88.417 C 257.000 86.111,256.985 86.000,256.667 86.000 C 256.397 86.000,256.333 85.889,256.333 85.417 C 256.333 85.009,256.258 84.833,256.083 84.833 C 255.944 84.833,255.833 84.685,255.833 84.500 C 255.833 84.278,255.722 84.167,255.500 84.167 C 255.315 84.167,255.167 84.056,255.167 83.917 C 255.167 83.778,255.019 83.667,254.833 83.667 C 254.611 83.667,254.500 83.556,254.500 83.333 C 254.500 83.150,254.396 83.000,254.269 83.000 C 254.143 83.000,254.000 82.850,253.952 82.667 C 253.904 82.483,253.745 82.333,253.599 82.333 C 253.453 82.333,253.333 82.221,253.333 82.083 C 253.333 81.909,253.157 81.833,252.750 81.833 C 252.278 81.833,252.167 81.770,252.167 81.500 C 252.167 81.278,252.056 81.167,251.833 81.167 C 251.648 81.167,251.500 81.056,251.500 80.917 C 251.500 80.779,251.387 80.667,251.250 80.667 C 251.111 80.667,251.000 80.519,251.000 80.333 C 251.000 80.118,250.889 80.000,250.686 80.000 C 250.507 80.000,250.333 79.849,250.281 79.650 C 250.230 79.457,250.109 79.349,250.011 79.410 C 249.907 79.474,249.833 79.377,249.833 79.177 C 249.833 78.952,249.725 78.833,249.519 78.833 C 249.346 78.833,249.167 78.684,249.118 78.500 C 249.070 78.317,248.912 78.167,248.766 78.167 C 248.620 78.167,248.500 78.054,248.500 77.917 C 248.500 77.779,248.387 77.667,248.250 77.667 C 248.111 77.667,248.000 77.519,248.000 77.333 C 248.000 77.111,247.889 77.000,247.667 77.000 C 247.483 77.000,247.333 76.896,247.333 76.768 C 247.333 76.513,246.983 76.333,246.486 76.333 C 246.311 76.333,246.167 76.221,246.167 76.083 C 246.167 75.944,246.019 75.833,245.833 75.833 C 245.608 75.833,245.500 75.722,245.500 75.490 C 245.500 75.289,245.426 75.193,245.322 75.257 C 245.224 75.317,245.103 75.210,245.053 75.017 C 245.001 74.817,244.826 74.667,244.647 74.667 C 244.444 74.667,244.333 74.549,244.333 74.333 C 244.333 74.148,244.222 74.000,244.083 74.000 C 243.946 74.000,243.833 73.887,243.833 73.750 C 243.833 73.611,243.685 73.500,243.500 73.500 C 243.278 73.500,243.167 73.389,243.167 73.167 C 243.167 72.944,243.056 72.833,242.833 72.833 C 242.611 72.833,242.500 72.722,242.500 72.500 C 242.500 72.315,242.389 72.167,242.250 72.167 C 242.112 72.167,242.000 72.054,242.000 71.917 C 242.000 71.778,241.852 71.667,241.667 71.667 C 241.444 71.667,241.333 71.556,241.333 71.333 C 241.333 71.148,241.222 71.000,241.083 71.000 C 240.946 71.000,240.833 70.887,240.833 70.750 C 240.833 70.611,240.685 70.500,240.500 70.500 C 240.278 70.500,240.167 70.389,240.167 70.167 C 240.167 69.944,240.056 69.833,239.833 69.833 C 239.611 69.833,239.500 69.722,239.500 69.500 C 239.500 69.315,239.389 69.167,239.250 69.167 C 239.112 69.167,239.000 69.054,239.000 68.917 C 239.000 68.779,239.112 68.667,239.250 68.667 C 239.389 68.667,239.500 68.519,239.500 68.333 C 239.500 68.111,239.611 68.000,239.833 68.000 C 240.017 68.000,240.167 67.896,240.167 67.769 C 240.167 67.643,240.317 67.500,240.500 67.452 C 240.683 67.404,240.833 67.245,240.833 67.099 C 240.833 66.907,240.994 66.833,241.417 66.833 C 241.889 66.833,242.000 66.770,242.000 66.500 C 242.000 66.315,242.111 66.167,242.250 66.167 C 242.387 66.167,242.500 66.054,242.500 65.917 C 242.500 65.778,242.648 65.667,242.833 65.667 C 243.056 65.667,243.167 65.556,243.167 65.333 C 243.167 65.111,243.278 65.000,243.500 65.000 C 243.685 65.000,243.833 64.889,243.833 64.750 C 243.833 64.612,243.946 64.500,244.083 64.500 C 244.222 64.500,244.333 64.352,244.333 64.167 C 244.333 63.944,244.444 63.833,244.667 63.833 C 244.889 63.833,245.000 63.722,245.000 63.500 C 245.000 63.315,245.111 63.167,245.250 63.167 C 245.387 63.167,245.500 63.054,245.500 62.917 C 245.500 62.778,245.648 62.667,245.833 62.667 C 246.056 62.667,246.167 62.556,246.167 62.333 C 246.167 62.111,246.278 62.000,246.500 62.000 C 246.685 62.000,246.833 61.889,246.833 61.750 C 246.833 61.612,246.946 61.500,247.083 61.500 C 247.222 61.500,247.333 61.352,247.333 61.167 C 247.333 60.944,247.444 60.833,247.667 60.833 C 247.889 60.833,248.000 60.722,248.000 60.500 C 248.000 60.315,248.111 60.167,248.250 60.167 C 248.387 60.167,248.500 60.054,248.500 59.917 C 248.500 59.778,248.648 59.667,248.833 59.667 C 249.056 59.667,249.167 59.556,249.167 59.333 C 249.167 59.111,249.278 59.000,249.500 59.000 C 249.685 59.000,249.833 58.889,249.833 58.750 C 249.833 58.612,249.946 58.500,250.083 58.500 C 250.264 58.500,250.333 58.315,250.333 57.833 C 250.333 57.278,250.389 57.167,250.667 57.167 C 250.852 57.167,251.000 57.056,251.000 56.917 C 251.000 56.779,251.112 56.667,251.250 56.667 C 251.389 56.667,251.500 56.519,251.500 56.333 C 251.500 56.111,251.611 56.000,251.833 56.000 C 252.103 56.000,252.167 55.889,252.167 55.417 C 252.167 54.944,252.230 54.833,252.500 54.833 C 252.722 54.833,252.833 54.722,252.833 54.500 C 252.833 54.315,252.944 54.167,253.083 54.167 C 253.221 54.167,253.333 54.054,253.333 53.917 C 253.333 53.778,253.481 53.667,253.667 53.667 C 253.937 53.667,254.000 53.556,254.000 53.083 C 254.000 52.676,254.075 52.500,254.250 52.500 C 254.389 52.500,254.500 52.352,254.500 52.167 C 254.500 51.944,254.611 51.833,254.833 51.833 C 255.103 51.833,255.167 51.722,255.167 51.250 C 255.167 50.778,255.230 50.667,255.500 50.667 C 255.770 50.667,255.833 50.556,255.833 50.083 C 255.833 49.676,255.909 49.500,256.083 49.500 C 256.264 49.500,256.333 49.315,256.333 48.833 C 256.333 48.278,256.389 48.167,256.667 48.167 C 256.956 48.167,257.000 48.056,257.000 47.333 C 257.000 46.704,257.061 46.500,257.250 46.500 C 257.459 46.500,257.500 46.157,257.500 44.417 C 257.500 42.676,257.459 42.333,257.250 42.333 C 257.069 42.333,257.000 42.147,257.000 41.659 C 257.000 41.110,256.946 40.994,256.708 41.034 C 256.481 41.073,256.405 40.946,256.365 40.458 C 256.331 40.049,256.230 39.833,256.073 39.833 C 255.941 39.833,255.833 39.721,255.833 39.583 C 255.833 39.444,255.685 39.333,255.500 39.333 C 255.278 39.333,255.167 39.222,255.167 39.000 C 255.167 38.707,255.056 38.667,254.250 38.667 C 253.559 38.667,253.333 38.607,253.333 38.424 C 253.333 38.280,253.103 38.139,252.767 38.075 C 252.018 37.935,251.583 38.031,251.583 38.336 C 251.583 38.517,251.349 38.597,250.708 38.634 C 249.970 38.676,249.833 38.735,249.833 39.009 C 249.833 39.222,249.719 39.333,249.500 39.333 C 249.317 39.333,249.167 39.437,249.167 39.564 C 249.167 39.691,249.034 39.829,248.872 39.872 C 248.688 39.920,248.562 40.132,248.538 40.433 C 248.517 40.699,248.387 41.000,248.250 41.102 C 248.112 41.203,248.000 41.372,248.000 41.477 C 248.000 41.581,247.850 41.667,247.667 41.667 C 247.397 41.667,247.333 41.778,247.333 42.250 C 247.333 42.657,247.258 42.833,247.083 42.833 C 246.944 42.833,246.833 42.981,246.833 43.167 C 246.833 43.389,246.722 43.500,246.500 43.500 C 246.232 43.500,246.167 43.611,246.167 44.064 C 246.167 44.497,246.085 44.649,245.817 44.719 C 245.610 44.773,245.514 44.888,245.583 45.000 C 245.652 45.112,245.557 45.227,245.350 45.281 C 245.081 45.351,245.000 45.503,245.000 45.936 C 245.000 46.377,244.932 46.500,244.686 46.500 C 244.507 46.500,244.333 46.651,244.281 46.850 C 244.230 47.043,244.109 47.151,244.011 47.090 C 243.907 47.026,243.833 47.123,243.833 47.323 C 243.833 47.556,243.725 47.667,243.500 47.667 C 243.284 47.667,243.167 47.778,243.167 47.981 C 243.167 48.179,243.058 48.288,242.875 48.273 C 242.636 48.254,242.593 48.363,242.638 48.875 C 242.685 49.414,242.645 49.500,242.346 49.500 C 242.150 49.500,242.000 49.608,242.000 49.750 C 242.000 49.889,241.852 50.000,241.667 50.000 C 241.483 50.000,241.342 50.056,241.353 50.125 C 241.406 50.461,241.311 50.667,241.103 50.667 C 240.976 50.667,240.831 50.824,240.781 51.017 C 240.727 51.224,240.612 51.319,240.500 51.250 C 240.388 51.181,240.273 51.276,240.219 51.483 C 240.169 51.676,240.029 51.833,239.908 51.833 C 239.788 51.833,239.642 51.983,239.583 52.167 C 239.525 52.350,239.370 52.500,239.239 52.500 C 239.107 52.500,239.000 52.612,239.000 52.750 C 239.000 52.889,238.852 53.000,238.667 53.000 C 238.483 53.000,238.342 53.056,238.353 53.125 C 238.407 53.469,238.309 53.667,238.083 53.667 C 237.909 53.667,237.833 53.843,237.833 54.250 C 237.833 54.722,237.770 54.833,237.500 54.833 C 237.278 54.833,237.167 54.944,237.167 55.167 C 237.167 55.355,237.056 55.500,236.911 55.500 C 236.771 55.500,236.613 55.612,236.560 55.750 C 236.508 55.887,236.360 56.000,236.232 56.000 C 236.104 56.000,236.000 56.150,236.000 56.333 C 236.000 56.556,235.889 56.667,235.667 56.667 C 235.363 56.667,235.333 56.556,235.333 55.417 C 235.333 54.278,235.363 54.167,235.667 54.167 C 235.975 54.167,236.000 54.056,236.000 52.667 C 236.000 51.444,236.046 51.167,236.250 51.167 C 236.454 51.167,236.500 50.889,236.500 49.667 C 236.500 48.278,236.525 48.167,236.833 48.167 C 237.142 48.167,237.167 48.056,237.167 46.667 C 237.167 45.278,237.191 45.167,237.500 45.167 C 237.807 45.167,237.833 45.056,237.833 43.750 C 237.833 42.602,237.881 42.333,238.083 42.333 C 238.287 42.333,238.333 42.056,238.333 40.833 C 238.333 39.444,238.358 39.333,238.667 39.333 C 238.980 39.333,239.000 39.222,239.000 37.500 C 239.000 35.981,239.043 35.667,239.250 35.667 C 239.456 35.667,239.500 35.361,239.500 33.911 C 239.500 32.505,239.450 32.137,239.250 32.060 C 239.096 32.001,239.000 31.748,239.000 31.399 C 239.000 30.944,238.935 30.833,238.667 30.833 C 238.481 30.833,238.333 30.722,238.333 30.583 C 238.333 30.446,238.221 30.333,238.083 30.333 C 237.944 30.333,237.833 30.185,237.833 30.000 C 237.833 29.707,237.722 29.667,236.917 29.667 C 236.130 29.667,236.000 29.622,236.000 29.353 C 236.000 29.008,233.012 28.828,232.527 29.143 M293.694 29.146 C 293.572 29.224,293.497 29.354,293.527 29.435 C 293.558 29.517,293.040 29.605,292.375 29.632 C 291.303 29.676,291.167 29.718,291.167 30.007 C 291.167 30.269,291.051 30.333,290.583 30.333 C 290.176 30.333,290.000 30.409,290.000 30.583 C 290.000 30.721,289.880 30.833,289.734 30.833 C 289.588 30.833,289.430 30.983,289.382 31.167 C 289.334 31.350,289.191 31.500,289.064 31.500 C 288.912 31.500,288.833 31.698,288.833 32.083 C 288.833 32.556,288.770 32.667,288.500 32.667 C 288.208 32.667,288.167 32.778,288.167 33.564 C 288.167 34.321,288.115 34.475,287.833 34.548 C 287.555 34.621,287.500 34.776,287.500 35.484 C 287.500 36.128,287.440 36.333,287.250 36.333 C 287.052 36.333,287.000 36.574,287.000 37.500 C 287.000 38.556,286.968 38.667,286.667 38.667 C 286.365 38.667,286.333 38.778,286.333 39.833 C 286.333 40.759,286.282 41.000,286.083 41.000 C 285.880 41.000,285.833 41.276,285.833 42.481 C 285.833 43.821,285.802 43.969,285.500 44.048 C 285.207 44.125,285.167 44.276,285.167 45.298 C 285.167 46.321,285.126 46.472,284.833 46.548 C 284.528 46.628,284.500 46.776,284.500 48.318 C 284.500 49.702,284.456 50.000,284.250 50.000 C 284.043 50.000,284.000 50.315,284.000 51.833 C 284.000 53.556,283.980 53.667,283.667 53.667 C 283.351 53.667,283.333 53.778,283.333 55.750 C 283.333 57.491,283.292 57.833,283.083 57.833 C 282.873 57.833,282.833 58.213,282.833 60.250 C 282.833 62.556,282.818 62.667,282.500 62.667 C 282.179 62.667,282.167 62.778,282.167 65.667 C 282.167 68.110,282.124 68.667,281.936 68.667 C 281.527 68.667,281.505 69.257,281.502 80.125 C 281.500 90.723,281.503 90.833,281.833 90.833 C 282.149 90.833,282.167 90.944,282.167 92.917 C 282.167 94.889,282.184 95.000,282.500 95.000 C 282.809 95.000,282.833 95.111,282.833 96.500 C 282.833 97.722,282.880 98.000,283.083 98.000 C 283.258 98.000,283.333 98.176,283.333 98.583 C 283.333 99.056,283.397 99.167,283.667 99.167 C 283.937 99.167,284.000 99.278,284.000 99.750 C 284.000 100.306,284.028 100.333,284.583 100.333 C 285.056 100.333,285.167 100.397,285.167 100.667 C 285.167 100.934,285.278 101.000,285.731 101.000 C 286.154 101.000,286.316 101.083,286.382 101.333 C 286.464 101.647,286.609 101.667,288.818 101.667 C 291.056 101.667,291.167 101.651,291.167 101.333 C 291.167 101.063,291.278 101.000,291.750 101.000 C 292.222 101.000,292.333 100.937,292.333 100.667 C 292.333 100.374,292.444 100.333,293.250 100.333 C 293.954 100.333,294.167 100.275,294.167 100.083 C 294.167 99.891,294.380 99.833,295.083 99.833 C 295.889 99.833,296.000 99.793,296.000 99.500 C 296.000 99.207,296.111 99.167,296.917 99.167 C 297.620 99.167,297.833 99.109,297.833 98.917 C 297.833 98.718,298.074 98.667,299.000 98.667 C 300.056 98.667,300.167 98.635,300.167 98.333 C 300.167 98.009,300.278 98.000,304.083 98.000 C 307.889 98.000,308.000 97.991,308.000 97.667 C 308.000 97.397,308.111 97.333,308.583 97.333 C 308.991 97.333,309.167 97.258,309.167 97.083 C 309.167 96.946,309.279 96.833,309.417 96.833 C 309.556 96.833,309.667 96.685,309.667 96.500 C 309.667 96.278,309.778 96.167,310.000 96.167 C 310.316 96.167,310.333 96.056,310.333 94.083 C 310.333 92.111,310.316 92.000,310.000 92.000 C 309.812 92.000,309.667 91.889,309.667 91.745 C 309.667 91.604,309.554 91.446,309.417 91.394 C 309.279 91.341,309.167 91.193,309.167 91.066 C 309.167 90.911,308.971 90.833,308.583 90.833 C 308.111 90.833,308.000 90.770,308.000 90.500 C 308.000 90.196,307.889 90.167,306.750 90.167 C 306.063 90.167,305.509 90.223,305.520 90.292 C 305.602 90.814,305.483 90.833,302.250 90.833 C 299.063 90.833,299.000 90.840,299.000 91.182 C 299.000 91.523,298.943 91.530,296.583 91.474 C 294.371 91.422,294.166 91.441,294.167 91.708 C 294.167 91.889,294.040 92.000,293.833 92.000 C 293.509 92.000,293.500 91.889,293.500 88.083 C 293.500 84.278,293.509 84.167,293.833 84.167 C 294.157 84.167,294.167 84.056,294.167 80.250 C 294.167 76.444,294.176 76.333,294.500 76.333 C 294.824 76.333,294.833 76.222,294.833 72.500 C 294.833 69.204,294.868 68.667,295.083 68.667 C 295.292 68.667,295.333 68.324,295.333 66.583 L 295.333 64.500 299.505 64.500 C 303.060 64.500,303.691 64.537,303.773 64.750 C 303.851 64.954,304.252 65.000,305.934 65.000 C 307.659 65.000,308.000 64.959,308.000 64.750 C 308.000 64.575,308.176 64.500,308.583 64.500 C 309.056 64.500,309.167 64.437,309.167 64.167 C 309.167 63.981,309.278 63.833,309.417 63.833 C 309.609 63.833,309.667 63.620,309.667 62.917 C 309.667 62.111,309.707 62.000,310.000 62.000 C 310.270 62.000,310.333 61.889,310.333 61.417 C 310.333 60.944,310.270 60.833,310.000 60.833 C 309.707 60.833,309.667 60.722,309.667 59.917 C 309.667 59.213,309.609 59.000,309.417 59.000 C 309.279 59.000,309.167 58.887,309.167 58.750 C 309.167 58.611,309.019 58.500,308.833 58.500 C 308.611 58.500,308.500 58.389,308.500 58.167 C 308.500 57.875,308.389 57.833,307.603 57.833 C 306.841 57.833,306.692 57.782,306.617 57.495 C 306.568 57.309,306.466 57.168,306.389 57.182 C 305.358 57.363,297.167 57.128,297.167 56.917 C 297.167 56.778,297.019 56.667,296.833 56.667 C 296.525 56.667,296.500 56.556,296.500 55.167 C 296.500 53.778,296.525 53.667,296.833 53.667 C 297.142 53.667,297.167 53.556,297.167 52.167 C 297.167 50.778,297.191 50.667,297.500 50.667 C 297.809 50.667,297.833 50.556,297.833 49.167 C 297.833 47.944,297.880 47.667,298.083 47.667 C 298.283 47.667,298.333 47.417,298.333 46.417 C 298.333 45.278,298.363 45.167,298.667 45.167 C 298.974 45.167,299.000 45.056,299.000 43.750 C 299.000 42.602,299.047 42.333,299.250 42.333 C 299.454 42.333,299.500 42.056,299.500 40.833 C 299.500 39.444,299.525 39.333,299.833 39.333 C 300.142 39.333,300.167 39.222,300.167 37.833 L 300.167 36.333 301.333 36.333 C 302.259 36.333,302.500 36.385,302.500 36.583 C 302.500 36.797,302.981 36.833,305.833 36.833 C 309.056 36.833,309.167 36.844,309.167 37.167 C 309.167 37.482,309.278 37.500,311.250 37.500 C 313.222 37.500,313.333 37.482,313.333 37.167 C 313.333 36.944,313.444 36.833,313.667 36.833 C 313.852 36.833,314.000 36.722,314.000 36.583 C 314.000 36.446,314.112 36.333,314.250 36.333 C 314.431 36.333,314.500 36.148,314.500 35.667 C 314.500 35.111,314.556 35.000,314.833 35.000 C 315.135 35.000,315.167 34.889,315.167 33.833 C 315.167 32.778,315.135 32.667,314.833 32.667 C 314.563 32.667,314.500 32.556,314.500 32.083 C 314.500 31.676,314.425 31.500,314.250 31.500 C 314.111 31.500,314.000 31.352,314.000 31.167 C 314.000 30.944,313.889 30.833,313.667 30.833 C 313.481 30.833,313.333 30.722,313.333 30.583 C 313.333 30.391,313.120 30.333,312.417 30.333 C 311.611 30.333,311.500 30.293,311.500 30.000 C 311.500 29.682,311.389 29.667,309.103 29.667 C 306.846 29.667,306.700 29.647,306.618 29.333 C 306.525 28.976,294.243 28.798,293.694 29.146 M359.049 29.330 C 358.963 29.659,358.837 29.667,353.814 29.667 C 348.778 29.667,348.667 29.674,348.667 30.000 C 348.667 30.324,348.556 30.333,344.833 30.333 C 341.537 30.333,341.000 30.368,341.000 30.583 C 341.000 30.782,340.758 30.833,339.818 30.833 C 338.776 30.833,338.625 30.873,338.548 31.167 C 338.483 31.417,338.321 31.500,337.897 31.500 C 337.433 31.500,337.333 31.563,337.333 31.854 C 337.333 32.161,337.265 32.195,336.817 32.105 C 336.394 32.020,336.286 32.061,336.215 32.334 C 336.167 32.518,335.987 32.667,335.814 32.667 C 335.534 32.667,335.500 32.804,335.500 33.917 C 335.500 34.917,335.450 35.167,335.250 35.167 C 335.075 35.167,335.000 35.343,335.000 35.750 C 335.000 36.157,335.075 36.333,335.250 36.333 C 335.425 36.333,335.500 36.509,335.500 36.917 C 335.500 37.389,335.563 37.500,335.833 37.500 C 336.103 37.500,336.167 37.611,336.167 38.083 L 336.167 38.667 339.417 38.667 C 342.556 38.667,342.667 38.655,342.667 38.333 C 342.667 38.013,342.778 38.000,345.417 38.000 L 348.167 38.000 348.167 38.667 C 348.167 39.222,348.111 39.333,347.833 39.333 C 347.525 39.333,347.500 39.444,347.500 40.833 C 347.500 42.056,347.454 42.333,347.250 42.333 C 347.044 42.333,347.000 42.639,347.000 44.083 C 347.000 45.722,346.979 45.833,346.667 45.833 C 346.349 45.833,346.333 45.944,346.333 48.250 C 346.333 50.205,346.289 50.667,346.101 50.667 C 345.725 50.667,345.667 51.063,345.667 53.597 C 345.667 55.622,345.627 56.000,345.417 56.000 C 345.205 56.000,345.167 56.417,345.167 58.750 C 345.167 61.389,345.153 61.500,344.833 61.500 C 344.509 61.500,344.500 61.611,344.500 65.667 C 344.500 69.259,344.466 69.833,344.250 69.833 C 344.031 69.833,344.000 70.778,344.000 77.333 C 344.000 83.889,344.031 84.833,344.250 84.833 C 344.462 84.833,344.500 85.241,344.500 87.500 C 344.500 90.056,344.514 90.167,344.833 90.167 C 345.146 90.167,345.167 90.278,345.167 92.000 C 345.167 93.519,345.210 93.833,345.417 93.833 C 345.620 93.833,345.667 94.111,345.667 95.333 C 345.667 96.722,345.691 96.833,346.000 96.833 C 346.293 96.833,346.333 96.944,346.333 97.750 C 346.333 98.556,346.374 98.667,346.667 98.667 C 346.852 98.667,347.000 98.778,347.000 98.917 C 347.000 99.054,347.113 99.167,347.250 99.167 C 347.389 99.167,347.500 99.315,347.500 99.500 C 347.500 99.722,347.611 99.833,347.833 99.833 C 348.019 99.833,348.167 99.944,348.167 100.083 C 348.167 100.221,348.279 100.333,348.417 100.333 C 348.556 100.333,348.667 100.481,348.667 100.667 C 348.667 100.944,348.778 101.000,349.333 101.000 C 349.889 101.000,350.000 101.056,350.000 101.333 C 350.000 101.651,350.111 101.667,352.333 101.667 C 354.556 101.667,354.667 101.651,354.667 101.333 C 354.667 101.111,354.778 101.000,355.000 101.000 C 355.222 101.000,355.333 100.889,355.333 100.667 C 355.333 100.444,355.444 100.333,355.667 100.333 C 355.852 100.333,356.000 100.222,356.000 100.083 C 356.000 99.946,356.113 99.833,356.250 99.833 C 356.442 99.833,356.500 99.620,356.500 98.917 C 356.500 98.111,356.540 98.000,356.833 98.000 C 357.164 98.000,357.167 97.889,357.167 83.333 C 357.167 70.407,357.196 68.667,357.417 68.667 C 357.633 68.667,357.667 68.056,357.667 64.167 C 357.667 59.778,357.675 59.667,358.000 59.667 C 358.318 59.667,358.333 59.556,358.333 57.250 C 358.333 54.944,358.349 54.833,358.667 54.833 C 358.982 54.833,359.000 54.722,359.000 52.750 C 359.000 51.009,359.041 50.667,359.250 50.667 C 359.457 50.667,359.500 50.352,359.500 48.833 C 359.500 47.111,359.520 47.000,359.833 47.000 C 360.146 47.000,360.167 46.889,360.167 45.250 C 360.167 43.806,360.210 43.500,360.417 43.500 C 360.626 43.500,360.667 43.157,360.667 41.417 C 360.667 39.444,360.684 39.333,361.000 39.333 C 361.293 39.333,361.333 39.222,361.333 38.417 L 361.333 37.500 367.333 37.500 C 373.222 37.500,373.333 37.494,373.333 37.167 C 373.333 36.897,373.444 36.833,373.917 36.833 C 374.324 36.833,374.500 36.758,374.500 36.583 C 374.500 36.446,374.620 36.333,374.766 36.333 C 374.912 36.333,375.070 36.183,375.118 36.000 C 375.166 35.817,375.309 35.667,375.436 35.667 C 375.622 35.667,375.667 35.196,375.667 33.250 C 375.667 31.213,375.627 30.833,375.417 30.833 C 375.279 30.833,375.167 30.721,375.167 30.583 C 375.167 30.444,375.019 30.333,374.833 30.333 C 374.611 30.333,374.500 30.222,374.500 30.000 C 374.500 29.730,374.389 29.667,373.917 29.667 C 373.448 29.667,373.333 29.602,373.333 29.340 C 373.333 28.819,359.185 28.809,359.049 29.330 M119.000 30.000 C 119.000 30.270,118.889 30.333,118.417 30.333 C 118.031 30.333,117.833 30.412,117.833 30.564 C 117.833 30.691,117.683 30.834,117.500 30.882 C 117.317 30.930,117.167 31.088,117.167 31.234 C 117.167 31.427,117.006 31.500,116.583 31.500 C 116.196 31.500,116.000 31.578,116.000 31.732 C 116.000 31.860,115.888 32.008,115.750 32.060 C 115.612 32.113,115.500 32.271,115.500 32.411 C 115.500 32.556,115.355 32.667,115.167 32.667 C 114.944 32.667,114.833 32.778,114.833 33.000 C 114.833 33.216,114.722 33.333,114.519 33.333 C 114.345 33.333,114.207 33.427,114.211 33.542 C 114.235 34.189,114.140 34.500,113.917 34.500 C 113.779 34.500,113.667 34.612,113.667 34.750 C 113.667 34.889,113.519 35.000,113.333 35.000 C 113.056 35.000,113.000 35.111,113.000 35.667 C 113.000 36.148,112.931 36.333,112.750 36.333 C 112.575 36.333,112.500 36.509,112.500 36.917 C 112.500 37.389,112.437 37.500,112.167 37.500 C 111.899 37.500,111.833 37.611,111.833 38.064 C 111.833 38.487,111.750 38.649,111.501 38.715 C 111.228 38.786,111.187 38.894,111.272 39.317 C 111.361 39.765,111.328 39.833,111.021 39.833 C 110.727 39.833,110.667 39.933,110.667 40.417 C 110.667 40.889,110.603 41.000,110.333 41.000 C 110.056 41.000,110.000 41.111,110.000 41.667 C 110.000 42.148,109.931 42.333,109.750 42.333 C 109.575 42.333,109.500 42.509,109.500 42.917 C 109.500 43.389,109.437 43.500,109.167 43.500 C 108.874 43.500,108.833 43.611,108.833 44.417 C 108.833 45.212,108.791 45.333,108.510 45.333 C 108.235 45.333,108.201 45.418,108.282 45.917 C 108.366 46.430,108.335 46.500,108.022 46.500 C 107.702 46.500,107.667 46.592,107.667 47.427 C 107.667 48.064,107.609 48.317,107.481 48.238 C 107.202 48.066,107.005 48.499,107.003 49.292 C 107.001 49.809,106.933 50.000,106.750 50.000 C 106.550 50.000,106.500 50.250,106.500 51.250 C 106.500 52.389,106.470 52.500,106.167 52.500 C 105.865 52.500,105.833 52.611,105.833 53.667 C 105.833 54.553,105.778 54.833,105.601 54.833 C 105.261 54.833,105.167 55.215,105.167 56.597 C 105.167 57.585,105.116 57.833,104.917 57.833 C 104.719 57.833,104.667 58.070,104.667 58.960 C 104.667 59.906,104.613 60.120,104.333 60.295 C 104.056 60.468,104.000 60.683,104.000 61.585 C 104.000 62.435,103.947 62.667,103.750 62.667 C 103.552 62.667,103.500 62.907,103.500 63.833 C 103.500 64.889,103.468 65.000,103.167 65.000 C 102.863 65.000,102.833 65.111,102.833 66.250 C 102.833 67.250,102.783 67.500,102.583 67.500 C 102.385 67.500,102.333 67.741,102.333 68.667 C 102.333 69.714,102.300 69.833,102.007 69.833 C 101.718 69.833,101.676 69.970,101.632 71.042 C 101.591 72.053,101.539 72.243,101.310 72.205 C 101.159 72.180,101.040 72.255,101.044 72.372 C 101.097 73.720,100.976 74.667,100.750 74.667 C 100.552 74.667,100.500 74.907,100.500 75.833 C 100.500 76.889,100.468 77.000,100.167 77.000 C 99.874 77.000,99.833 77.111,99.833 77.917 C 99.833 78.620,99.775 78.833,99.583 78.833 C 99.385 78.833,99.333 79.074,99.333 80.000 C 99.333 81.056,99.302 81.167,99.000 81.167 C 98.696 81.167,98.667 81.278,98.667 82.417 C 98.667 83.544,98.635 83.667,98.342 83.667 C 98.068 83.667,98.010 83.803,97.967 84.542 C 97.933 85.133,97.849 85.403,97.708 85.375 C 97.556 85.345,97.500 85.672,97.500 86.583 C 97.500 87.722,97.470 87.833,97.167 87.833 C 96.874 87.833,96.833 87.944,96.833 88.750 C 96.833 89.454,96.775 89.667,96.583 89.667 C 96.385 89.667,96.333 89.907,96.333 90.833 C 96.333 91.889,96.302 92.000,96.000 92.000 C 95.707 92.000,95.667 92.111,95.667 92.917 C 95.667 93.722,95.626 93.833,95.333 93.833 C 95.014 93.833,95.000 93.944,95.000 96.432 C 95.000 98.891,95.018 99.036,95.333 99.118 C 95.518 99.167,95.667 99.346,95.667 99.519 C 95.667 99.722,95.785 99.833,96.000 99.833 C 96.185 99.833,96.333 99.944,96.333 100.083 C 96.333 100.292,96.676 100.333,98.417 100.333 C 100.157 100.333,100.500 100.292,100.500 100.083 C 100.500 99.946,100.612 99.833,100.750 99.833 C 100.889 99.833,101.000 99.685,101.000 99.500 C 101.000 99.278,101.111 99.167,101.333 99.167 C 101.626 99.167,101.667 99.056,101.667 98.250 C 101.667 97.546,101.725 97.333,101.917 97.333 C 102.106 97.333,102.167 97.130,102.167 96.500 C 102.167 95.778,102.211 95.667,102.500 95.667 C 102.804 95.667,102.833 95.556,102.833 94.417 C 102.833 93.278,102.863 93.167,103.167 93.167 C 103.460 93.167,103.500 93.056,103.500 92.250 C 103.500 91.546,103.558 91.333,103.750 91.333 C 103.948 91.333,104.000 91.093,104.000 90.167 C 104.000 89.111,104.032 89.000,104.333 89.000 C 104.635 89.000,104.667 88.889,104.667 87.833 C 104.667 86.907,104.718 86.667,104.917 86.667 C 105.109 86.667,105.167 86.454,105.167 85.750 C 105.167 84.944,105.207 84.833,105.500 84.833 C 105.804 84.833,105.833 84.722,105.833 83.583 C 105.833 82.444,105.863 82.333,106.167 82.333 C 106.456 82.333,106.500 82.222,106.500 81.500 C 106.500 80.870,106.561 80.667,106.750 80.667 C 106.950 80.667,107.000 80.417,107.000 79.417 C 107.000 78.278,107.030 78.167,107.333 78.167 C 107.626 78.167,107.667 78.056,107.667 77.250 C 107.667 76.546,107.725 76.333,107.917 76.333 C 108.115 76.333,108.167 76.093,108.167 75.167 C 108.167 74.111,108.198 74.000,108.500 74.000 C 108.793 74.000,108.833 73.889,108.833 73.083 L 108.833 72.167 109.417 72.167 C 109.824 72.167,110.000 72.091,110.000 71.917 C 110.000 71.708,110.343 71.667,112.083 71.667 C 114.056 71.667,114.167 71.649,114.167 71.333 C 114.167 71.017,114.278 71.000,116.333 71.000 L 118.500 71.000 118.500 78.167 C 118.500 84.426,118.532 85.333,118.750 85.333 C 118.966 85.333,119.000 85.944,119.000 89.833 C 119.000 94.222,119.008 94.333,119.333 94.333 C 119.642 94.333,119.667 94.444,119.667 95.833 C 119.667 97.056,119.713 97.333,119.917 97.333 C 120.134 97.333,120.295 98.354,120.186 99.042 C 120.176 99.110,120.317 99.167,120.500 99.167 C 120.722 99.167,120.833 99.278,120.833 99.500 C 120.833 99.722,120.944 99.833,121.167 99.833 C 121.352 99.833,121.500 99.944,121.500 100.083 C 121.500 100.221,121.612 100.333,121.750 100.333 C 121.889 100.333,122.000 100.481,122.000 100.667 C 122.000 100.889,122.111 101.000,122.333 101.000 C 122.556 101.000,122.667 101.111,122.667 101.333 C 122.667 101.655,122.778 101.667,125.917 101.667 C 129.056 101.667,129.167 101.655,129.167 101.333 C 129.167 101.056,129.278 101.000,129.833 101.000 C 130.389 101.000,130.500 100.944,130.500 100.667 C 130.500 100.397,130.611 100.333,131.083 100.333 C 131.639 100.333,131.667 100.306,131.667 99.750 C 131.667 99.343,131.742 99.167,131.917 99.167 C 132.130 99.167,132.167 98.694,132.167 95.917 C 132.167 93.139,132.130 92.667,131.917 92.667 C 131.707 92.667,131.667 92.316,131.667 90.510 C 131.667 88.442,131.653 88.355,131.333 88.417 C 131.002 88.481,131.000 88.391,131.000 71.324 C 131.000 57.687,130.957 54.175,130.792 54.208 C 130.628 54.241,130.574 52.584,130.540 46.458 C 130.497 38.805,130.491 38.667,130.165 38.667 C 129.858 38.667,129.833 38.553,129.833 37.167 C 129.833 35.778,129.809 35.667,129.500 35.667 C 129.207 35.667,129.167 35.556,129.167 34.750 C 129.167 34.046,129.109 33.833,128.917 33.833 C 128.742 33.833,128.667 33.657,128.667 33.250 C 128.667 32.778,128.603 32.667,128.333 32.667 C 128.145 32.667,128.000 32.556,128.000 32.411 C 128.000 32.271,127.888 32.113,127.750 32.060 C 127.596 32.001,127.500 31.748,127.500 31.399 C 127.500 30.850,127.480 30.833,126.833 30.833 C 126.352 30.833,126.167 30.764,126.167 30.583 C 126.167 30.446,126.054 30.333,125.917 30.333 C 125.778 30.333,125.667 30.185,125.667 30.000 C 125.667 29.678,125.556 29.667,122.333 29.667 C 119.111 29.667,119.000 29.678,119.000 30.000 M179.000 38.333 C 179.000 38.601,179.111 38.667,179.564 38.667 C 179.988 38.667,180.149 38.750,180.215 39.000 C 180.282 39.255,180.442 39.333,180.896 39.333 C 181.355 39.333,181.468 39.390,181.394 39.583 C 181.318 39.781,181.442 39.833,181.982 39.833 C 182.556 39.833,182.667 39.887,182.667 40.167 C 182.667 40.352,182.778 40.500,182.917 40.500 C 183.054 40.500,183.167 40.612,183.167 40.750 C 183.167 40.889,183.315 41.000,183.500 41.000 C 183.722 41.000,183.833 41.111,183.833 41.333 C 183.833 41.519,183.944 41.667,184.083 41.667 C 184.300 41.667,184.435 42.190,184.353 42.708 C 184.342 42.777,184.483 42.833,184.667 42.833 C 184.937 42.833,185.000 42.944,185.000 43.417 C 185.000 43.889,185.063 44.000,185.333 44.000 C 185.637 44.000,185.667 44.111,185.667 45.250 C 185.667 46.250,185.717 46.500,185.917 46.500 C 186.109 46.500,186.167 46.713,186.167 47.417 C 186.167 48.061,186.105 48.321,185.958 48.292 C 185.804 48.261,185.738 48.717,185.703 50.042 C 185.659 51.696,185.630 51.833,185.328 51.833 C 185.042 51.833,185.000 51.950,185.000 52.750 C 185.000 53.556,184.960 53.667,184.667 53.667 C 184.483 53.667,184.342 53.723,184.353 53.792 C 184.435 54.310,184.300 54.833,184.083 54.833 C 183.909 54.833,183.833 55.009,183.833 55.417 C 183.833 55.889,183.770 56.000,183.500 56.000 C 183.223 56.000,183.167 56.111,183.167 56.661 C 183.167 57.181,183.113 57.302,182.917 57.227 C 182.743 57.160,182.667 57.238,182.667 57.482 C 182.667 57.722,182.561 57.833,182.333 57.833 C 182.066 57.833,182.000 57.944,182.000 58.397 C 182.000 58.830,181.919 58.982,181.650 59.053 C 181.443 59.107,181.348 59.222,181.417 59.333 C 181.486 59.445,181.390 59.560,181.183 59.614 C 180.991 59.664,180.833 59.804,180.833 59.925 C 180.833 60.046,180.683 60.192,180.500 60.250 C 180.317 60.308,180.167 60.463,180.167 60.595 C 180.167 60.726,180.054 60.833,179.917 60.833 C 179.778 60.833,179.667 60.981,179.667 61.167 C 179.667 61.444,179.556 61.500,179.005 61.500 C 178.486 61.500,178.364 61.554,178.440 61.750 C 178.506 61.923,178.428 62.000,178.184 62.000 C 177.944 62.000,177.833 62.105,177.833 62.333 C 177.833 62.626,177.722 62.667,176.917 62.667 C 176.213 62.667,176.000 62.725,176.000 62.917 C 176.000 63.108,175.789 63.167,175.097 63.167 C 174.041 63.167,173.667 63.280,173.667 63.601 C 173.667 63.761,173.459 63.833,173.000 63.833 L 172.333 63.833 172.333 61.417 C 172.333 59.111,172.349 59.000,172.667 59.000 C 172.979 59.000,173.000 58.889,173.000 57.269 C 173.000 55.679,173.027 55.532,173.333 55.452 C 173.640 55.371,173.667 55.224,173.667 53.599 C 173.667 52.141,173.710 51.833,173.917 51.833 C 174.120 51.833,174.167 51.556,174.167 50.333 C 174.167 48.944,174.191 48.833,174.500 48.833 C 174.802 48.833,174.833 48.722,174.833 47.667 C 174.833 46.741,174.885 46.500,175.083 46.500 C 175.287 46.500,175.333 46.222,175.333 45.000 C 175.333 43.611,175.358 43.500,175.667 43.500 C 175.975 43.500,176.000 43.389,176.000 42.000 C 176.000 40.611,176.025 40.500,176.333 40.500 C 176.637 40.500,176.667 40.389,176.667 39.250 L 176.667 38.000 177.833 38.000 C 178.889 38.000,179.000 38.032,179.000 38.333 M118.500 44.917 C 118.500 48.287,118.535 48.833,118.750 48.833 C 118.969 48.833,119.000 49.777,119.000 56.329 L 119.000 63.824 116.625 63.870 C 114.646 63.909,114.250 63.958,114.250 64.167 C 114.250 64.367,113.946 64.426,112.708 64.465 L 111.167 64.513 111.167 63.256 C 111.167 62.111,111.196 62.000,111.500 62.000 C 111.809 62.000,111.833 61.889,111.833 60.500 C 111.833 59.111,111.858 59.000,112.167 59.000 C 112.468 59.000,112.500 58.889,112.500 57.833 C 112.500 56.907,112.552 56.667,112.750 56.667 C 112.950 56.667,113.000 56.417,113.000 55.417 C 113.000 54.278,113.030 54.167,113.333 54.167 C 113.622 54.167,113.667 54.056,113.667 53.333 C 113.667 52.704,113.728 52.500,113.917 52.500 C 114.109 52.500,114.167 52.287,114.167 51.583 C 114.167 50.778,114.207 50.667,114.500 50.667 C 114.804 50.667,114.833 50.556,114.833 49.417 C 114.833 48.278,114.863 48.167,115.167 48.167 C 115.437 48.167,115.500 48.056,115.500 47.583 C 115.500 47.176,115.575 47.000,115.750 47.000 C 115.942 47.000,116.000 46.787,116.000 46.083 C 116.000 45.278,116.040 45.167,116.333 45.167 C 116.622 45.167,116.667 45.056,116.667 44.333 C 116.667 43.704,116.728 43.500,116.917 43.500 C 117.091 43.500,117.167 43.324,117.167 42.917 C 117.167 42.444,117.230 42.333,117.500 42.333 C 117.778 42.333,117.833 42.222,117.833 41.667 C 117.833 41.111,117.889 41.000,118.167 41.000 C 118.491 41.000,118.500 41.111,118.500 44.917 " stroke="none" fill="#545454" fill-rule="evenodd"></path><path id="path1" d="M109.500 109.064 C 109.500 109.191,109.350 109.334,109.167 109.382 C 108.889 109.454,108.833 109.609,108.833 110.306 C 108.833 110.970,108.773 111.154,108.542 111.198 C 108.292 111.247,108.258 111.413,108.306 112.362 C 108.357 113.363,108.329 113.479,108.014 113.579 C 107.684 113.684,107.667 113.804,107.667 116.011 C 107.667 118.222,107.651 118.333,107.333 118.333 C 107.007 118.333,107.000 118.444,107.000 124.016 C 107.000 129.558,107.008 129.700,107.333 129.785 C 107.626 129.862,107.667 130.012,107.667 131.019 L 107.667 132.167 109.750 132.167 L 111.833 132.167 111.833 126.750 L 111.833 121.333 113.000 121.333 C 113.926 121.333,114.167 121.282,114.167 121.083 C 114.167 120.891,114.380 120.833,115.083 120.833 C 115.889 120.833,116.000 120.793,116.000 120.500 C 116.000 120.278,116.111 120.167,116.333 120.167 C 116.556 120.167,116.667 120.056,116.667 119.833 C 116.667 119.563,116.778 119.500,117.250 119.500 C 117.657 119.500,117.833 119.425,117.833 119.250 C 117.833 119.111,117.981 119.000,118.167 119.000 C 118.435 119.000,118.500 118.889,118.500 118.434 C 118.500 118.086,118.596 117.832,118.750 117.773 C 118.926 117.705,119.000 117.430,119.000 116.839 C 119.000 116.111,119.044 116.000,119.333 116.000 C 119.635 116.000,119.667 115.889,119.667 114.818 C 119.667 113.776,119.627 113.625,119.333 113.548 C 119.057 113.476,119.000 113.321,119.000 112.647 C 119.000 112.035,118.938 111.833,118.750 111.833 C 118.611 111.833,118.500 111.685,118.500 111.500 C 118.500 111.278,118.389 111.167,118.167 111.167 C 117.973 111.167,117.833 111.056,117.833 110.901 C 117.833 110.755,117.683 110.596,117.500 110.548 C 117.317 110.500,117.167 110.357,117.167 110.231 C 117.167 110.066,116.935 110.000,116.353 110.000 C 115.679 110.000,115.524 109.943,115.452 109.667 C 115.375 109.373,115.224 109.333,114.182 109.333 C 113.242 109.333,113.000 109.282,113.000 109.083 C 113.000 108.877,112.694 108.833,111.250 108.833 C 109.871 108.833,109.500 108.882,109.500 109.064 M170.000 109.083 C 170.000 109.221,169.896 109.333,169.769 109.333 C 169.643 109.333,169.500 109.483,169.452 109.667 C 169.404 109.850,169.245 110.000,169.099 110.000 C 168.881 110.000,168.833 110.210,168.833 111.167 C 168.833 112.222,168.802 112.333,168.500 112.333 C 168.196 112.333,168.167 112.444,168.167 113.583 C 168.167 114.583,168.117 114.833,167.917 114.833 C 167.708 114.833,167.667 115.176,167.667 116.917 C 167.667 118.889,167.649 119.000,167.333 119.000 C 167.007 119.000,167.000 119.111,167.000 124.667 C 167.000 130.222,167.007 130.333,167.333 130.333 C 167.626 130.333,167.667 130.444,167.667 131.250 L 167.667 132.167 169.750 132.167 C 171.722 132.167,171.833 132.149,171.833 131.833 C 171.833 131.563,171.944 131.500,172.417 131.500 C 172.824 131.500,173.000 131.425,173.000 131.250 C 173.000 131.046,173.279 131.000,174.507 131.000 L 176.015 131.000 175.966 129.792 L 175.917 128.583 173.886 128.537 C 172.168 128.497,171.848 128.448,171.803 128.219 C 171.612 127.240,171.863 120.167,172.089 120.167 C 172.289 120.167,172.333 119.832,172.333 118.333 C 172.333 116.611,172.354 116.500,172.667 116.500 C 172.975 116.500,173.000 116.389,173.000 115.000 C 173.000 113.611,173.025 113.500,173.333 113.500 C 173.651 113.500,173.667 113.389,173.667 111.167 L 173.667 108.833 171.833 108.833 C 170.315 108.833,170.000 108.876,170.000 109.083 M230.000 109.083 C 230.000 109.258,229.824 109.333,229.417 109.333 C 228.944 109.333,228.833 109.397,228.833 109.667 C 228.833 109.889,228.722 110.000,228.500 110.000 C 228.230 110.000,228.167 110.111,228.167 110.583 C 228.167 110.991,228.091 111.167,227.917 111.167 C 227.742 111.167,227.667 111.343,227.667 111.750 C 227.667 112.222,227.603 112.333,227.333 112.333 C 227.066 112.333,227.000 112.444,227.000 112.897 C 227.000 113.321,226.917 113.483,226.667 113.548 C 226.388 113.621,226.333 113.776,226.333 114.484 C 226.333 115.128,226.273 115.333,226.083 115.333 C 225.891 115.333,225.833 115.546,225.833 116.250 C 225.833 117.056,225.793 117.167,225.500 117.167 C 225.191 117.167,225.167 117.278,225.167 118.667 C 225.167 119.889,225.120 120.167,224.917 120.167 C 224.718 120.167,224.667 120.407,224.667 121.333 C 224.667 122.389,224.635 122.500,224.333 122.500 C 224.040 122.500,224.000 122.611,224.000 123.417 C 224.000 124.222,223.960 124.333,223.667 124.333 C 223.363 124.333,223.333 124.444,223.333 125.583 C 223.333 126.583,223.283 126.833,223.083 126.833 C 222.885 126.833,222.833 127.074,222.833 128.000 C 222.833 129.056,222.802 129.167,222.500 129.167 C 222.198 129.167,222.167 129.278,222.167 130.333 L 222.167 131.500 223.667 131.500 L 225.167 131.500 225.167 130.686 C 225.167 130.012,225.224 129.857,225.500 129.785 C 225.778 129.712,225.833 129.558,225.833 128.849 C 225.833 128.205,225.894 128.000,226.083 128.000 C 226.283 128.000,226.333 127.750,226.333 126.750 C 226.333 125.611,226.363 125.500,226.667 125.500 C 226.968 125.500,227.000 125.389,227.000 124.333 C 227.000 123.278,227.032 123.167,227.333 123.167 C 227.556 123.167,227.667 123.056,227.667 122.833 C 227.667 122.532,227.778 122.500,228.833 122.500 L 230.000 122.500 230.000 127.000 C 230.000 131.389,230.008 131.500,230.333 131.500 C 230.557 131.500,230.667 131.611,230.667 131.838 C 230.667 132.163,230.752 132.175,232.708 132.130 L 234.750 132.083 234.796 129.708 C 234.841 127.419,234.830 127.333,234.505 127.333 C 234.170 127.333,234.167 127.260,234.167 118.984 C 234.167 110.776,234.161 110.634,233.833 110.548 C 233.583 110.483,233.500 110.321,233.500 109.897 C 233.500 109.507,233.423 109.333,233.250 109.333 C 233.112 109.333,233.000 109.221,233.000 109.083 C 233.000 108.880,232.722 108.833,231.500 108.833 C 230.278 108.833,230.000 108.880,230.000 109.083 M290.000 109.083 C 290.000 109.275,289.787 109.333,289.083 109.333 C 288.278 109.333,288.167 109.374,288.167 109.667 C 288.167 109.889,288.056 110.000,287.833 110.000 C 287.650 110.000,287.500 110.104,287.500 110.232 C 287.500 110.360,287.387 110.508,287.250 110.560 C 287.112 110.613,287.000 110.771,287.000 110.911 C 287.000 111.056,286.855 111.167,286.667 111.167 C 286.397 111.167,286.333 111.278,286.333 111.750 C 286.333 112.157,286.258 112.333,286.083 112.333 C 285.910 112.333,285.833 112.508,285.833 112.905 C 285.833 113.331,285.748 113.505,285.500 113.583 C 285.226 113.670,285.167 113.836,285.167 114.511 C 285.167 115.222,285.122 115.333,284.833 115.333 C 284.540 115.333,284.500 115.444,284.500 116.250 C 284.500 116.954,284.442 117.167,284.250 117.167 C 284.034 117.167,284.000 117.741,284.000 121.333 C 284.000 124.926,284.034 125.500,284.250 125.500 C 284.450 125.500,284.500 125.750,284.500 126.750 C 284.500 127.889,284.530 128.000,284.833 128.000 C 285.126 128.000,285.167 128.111,285.167 128.917 C 285.167 129.722,285.207 129.833,285.500 129.833 C 285.685 129.833,285.833 129.944,285.833 130.083 C 285.833 130.221,285.946 130.333,286.083 130.333 C 286.258 130.333,286.333 130.509,286.333 130.917 C 286.333 131.472,286.361 131.500,286.917 131.500 C 287.389 131.500,287.500 131.563,287.500 131.833 C 287.500 132.151,287.611 132.167,289.917 132.167 C 292.222 132.167,292.333 132.151,292.333 131.833 C 292.333 131.563,292.444 131.500,292.917 131.500 C 293.302 131.500,293.500 131.422,293.500 131.269 C 293.500 131.143,293.650 131.000,293.833 130.952 C 294.072 130.889,294.167 130.724,294.167 130.368 C 294.167 130.012,294.261 129.848,294.500 129.785 C 294.755 129.718,294.833 129.558,294.833 129.099 C 294.833 128.678,294.907 128.500,295.083 128.500 C 295.290 128.500,295.333 128.194,295.333 126.750 L 295.333 125.000 294.167 125.000 C 293.241 125.000,293.000 125.052,293.000 125.250 C 293.000 125.389,292.852 125.500,292.667 125.500 C 292.374 125.500,292.333 125.611,292.333 126.417 C 292.333 127.120,292.275 127.333,292.083 127.333 C 291.910 127.333,291.833 127.507,291.833 127.897 C 291.833 128.321,291.750 128.483,291.500 128.548 C 291.317 128.596,291.167 128.755,291.167 128.901 C 291.167 129.093,291.006 129.167,290.583 129.167 C 290.028 129.167,290.000 129.139,290.000 128.583 C 290.000 128.111,289.937 128.000,289.667 128.000 C 289.374 128.000,289.333 127.889,289.333 127.083 C 289.333 126.380,289.275 126.167,289.083 126.167 C 288.868 126.167,288.833 125.620,288.833 122.250 C 288.833 118.880,288.868 118.333,289.083 118.333 C 289.287 118.333,289.333 118.056,289.333 116.833 C 289.333 115.444,289.358 115.333,289.667 115.333 C 289.937 115.333,290.000 115.222,290.000 114.750 C 290.000 114.343,290.075 114.167,290.250 114.167 C 290.425 114.167,290.500 113.991,290.500 113.583 C 290.500 113.111,290.563 113.000,290.833 113.000 C 291.056 113.000,291.167 112.889,291.167 112.667 C 291.167 112.444,291.278 112.333,291.500 112.333 C 291.685 112.333,291.833 112.222,291.833 112.083 C 291.833 111.946,291.946 111.833,292.083 111.833 C 292.221 111.833,292.333 111.946,292.333 112.083 C 292.333 112.222,292.481 112.333,292.667 112.333 C 292.960 112.333,293.000 112.444,293.000 113.250 L 293.000 114.167 294.167 114.167 L 295.333 114.167 295.333 112.083 C 295.333 110.421,295.287 110.000,295.103 110.000 C 294.976 110.000,294.833 109.850,294.785 109.667 C 294.718 109.411,294.558 109.333,294.099 109.333 C 293.678 109.333,293.500 109.259,293.500 109.083 C 293.500 108.877,293.194 108.833,291.750 108.833 C 290.306 108.833,290.000 108.877,290.000 109.083 M347.000 109.083 C 347.000 109.222,346.852 109.333,346.667 109.333 C 346.451 109.333,346.333 109.444,346.333 109.647 C 346.333 109.821,346.184 110.000,346.000 110.048 C 345.709 110.124,345.667 110.276,345.667 111.234 C 345.667 112.100,345.614 112.333,345.417 112.333 C 345.217 112.333,345.167 112.583,345.167 113.583 C 345.167 114.722,345.137 114.833,344.833 114.833 C 344.518 114.833,344.500 114.944,344.500 116.917 C 344.500 118.657,344.459 119.000,344.250 119.000 C 344.033 119.000,344.000 119.741,344.000 124.667 C 344.000 129.593,344.033 130.333,344.250 130.333 C 344.442 130.333,344.500 130.546,344.500 131.250 L 344.500 132.167 346.333 132.167 C 348.056 132.167,348.167 132.146,348.167 131.833 C 348.167 131.540,348.278 131.500,349.083 131.500 C 349.787 131.500,350.000 131.442,350.000 131.250 C 350.000 131.044,350.306 131.000,351.757 131.000 L 353.515 131.000 353.466 129.792 L 353.417 128.583 350.792 128.537 C 348.610 128.499,348.167 128.450,348.167 128.246 C 348.167 128.111,348.279 128.000,348.417 128.000 C 348.632 128.000,348.667 127.454,348.667 124.083 L 348.667 120.167 351.083 120.167 L 353.500 120.167 353.500 119.000 L 353.500 117.833 351.417 117.833 L 349.333 117.833 349.333 116.917 C 349.333 116.111,349.374 116.000,349.667 116.000 C 349.970 116.000,350.000 115.889,350.000 114.750 C 350.000 113.750,350.050 113.500,350.250 113.500 C 350.448 113.500,350.500 113.259,350.500 112.333 L 350.500 111.167 351.397 111.167 C 352.154 111.167,352.308 111.219,352.382 111.500 C 352.460 111.801,352.609 111.833,353.908 111.833 L 355.348 111.833 355.299 110.625 L 355.250 109.417 354.708 109.364 C 354.373 109.332,354.167 109.221,354.167 109.073 C 354.167 108.872,353.587 108.833,350.583 108.833 C 347.509 108.833,347.000 108.869,347.000 109.083 M113.667 112.083 C 113.667 112.258,113.843 112.333,114.250 112.333 C 114.722 112.333,114.833 112.397,114.833 112.667 C 114.833 112.889,114.944 113.000,115.167 113.000 C 115.475 113.000,115.500 113.111,115.500 114.500 C 115.500 115.889,115.475 116.000,115.167 116.000 C 114.899 116.000,114.833 116.111,114.833 116.564 C 114.833 116.988,114.750 117.149,114.500 117.215 C 114.317 117.263,114.167 117.422,114.167 117.568 C 114.167 117.714,114.054 117.833,113.917 117.833 C 113.779 117.833,113.667 117.946,113.667 118.083 C 113.667 118.258,113.491 118.333,113.083 118.333 C 112.611 118.333,112.500 118.397,112.500 118.667 C 112.500 118.889,112.389 119.000,112.167 119.000 C 111.944 119.000,111.833 118.889,111.833 118.667 C 111.833 118.444,111.944 118.333,112.167 118.333 C 112.475 118.333,112.500 118.222,112.500 116.833 C 112.500 115.611,112.546 115.333,112.750 115.333 C 112.956 115.333,113.000 115.028,113.000 113.583 C 113.000 111.944,113.021 111.833,113.333 111.833 C 113.519 111.833,113.667 111.944,113.667 112.083 M230.000 117.167 L 230.000 120.167 229.083 120.167 L 228.167 120.167 228.167 119.250 C 228.167 118.444,228.207 118.333,228.500 118.333 C 228.802 118.333,228.833 118.222,228.833 117.167 C 228.833 116.241,228.885 116.000,229.083 116.000 C 229.275 116.000,229.333 115.787,229.333 115.083 C 229.333 114.278,229.374 114.167,229.667 114.167 C 229.988 114.167,230.000 114.278,230.000 117.167 " stroke="none" fill="#0cb4bc" fill-rule="evenodd"></path><path id="path2" d="M181.625 32.118 C 181.831 32.157,182.169 32.157,182.375 32.118 C 182.581 32.078,182.412 32.045,182.000 32.045 C 181.588 32.045,181.419 32.078,181.625 32.118 M59.075 81.250 C 59.075 84.642,59.098 86.006,59.125 84.281 C 59.152 82.556,59.152 79.781,59.125 78.114 C 59.098 76.447,59.075 77.858,59.075 81.250 M41.045 83.667 C 41.045 84.079,41.078 84.248,41.118 84.042 C 41.157 83.835,41.157 83.498,41.118 83.292 C 41.078 83.085,41.045 83.254,41.045 83.667 M295.708 91.457 C 296.327 91.489,297.340 91.489,297.958 91.457 C 298.577 91.425,298.071 91.399,296.833 91.399 C 295.596 91.399,295.090 91.425,295.708 91.457 " stroke="none" fill="#58546c" fill-rule="evenodd"></path><path id="path3" d="M108.218 112.583 C 108.219 113.133,108.250 113.338,108.287 113.039 C 108.325 112.739,108.324 112.289,108.286 112.039 C 108.248 111.788,108.217 112.033,108.218 112.583 " stroke="none" fill="#30886c" fill-rule="evenodd"></path><path id="path4" d="M181.625 32.118 C 181.831 32.157,182.169 32.157,182.375 32.118 C 182.581 32.078,182.412 32.045,182.000 32.045 C 181.588 32.045,181.419 32.078,181.625 32.118 M59.075 81.250 C 59.075 84.642,59.098 86.006,59.125 84.281 C 59.152 82.556,59.152 79.781,59.125 78.114 C 59.098 76.447,59.075 77.858,59.075 81.250 M41.045 83.667 C 41.045 84.079,41.078 84.248,41.118 84.042 C 41.157 83.835,41.157 83.498,41.118 83.292 C 41.078 83.085,41.045 83.254,41.045 83.667 M295.708 91.457 C 296.327 91.489,297.340 91.489,297.958 91.457 C 298.577 91.425,298.071 91.399,296.833 91.399 C 295.596 91.399,295.090 91.425,295.708 91.457 " stroke="none" fill="#58546c" fill-rule="evenodd"></path></g></svg>